<svg width="212" height="212" viewBox="0 0 212 212" fill="none" xmlns="http://www.w3.org/2000/svg">
<path d="M163.26 186.671C166.636 189.742 171.861 189.491 174.938 186.112L192.902 166.331C195.973 162.955 195.724 157.721 192.352 154.656L179.417 142.923C182.619 136.67 184.938 130.128 186.412 123.431L203.872 122.584C208.423 122.379 211.954 118.496 211.726 113.945L210.442 87.2473C210.228 82.695 206.359 79.1627 201.808 79.3905L184.336 80.2291C182.233 73.7092 179.285 67.4131 175.524 61.5066L187.264 48.597C190.348 45.2066 190.088 39.9786 186.707 36.911L166.938 18.9313C163.561 15.8692 158.324 16.1267 155.263 19.4816L143.515 32.4258C137.264 29.2295 130.72 26.9054 124.028 25.4276L123.196 7.98062C122.99 3.41647 119.106 -0.0921917 114.548 0.124602L87.867 1.39961C83.2919 1.61176 79.78 5.49057 80.0055 10.0507L80.8338 27.4922C74.3171 29.6009 68.0123 32.5458 62.109 36.3127L49.1876 24.5653C45.8044 21.5064 40.5778 21.7434 37.5079 25.1329L19.5424 44.9006C16.4771 48.2728 16.7173 53.5049 20.0958 56.5811L33.0227 68.3253C29.8397 74.5606 27.5069 81.1026 26.03 87.809L8.59718 88.6396C4.02839 88.8628 0.515685 92.7274 0.72151 97.2916L2.00285 123.984C2.21964 128.542 6.10163 132.059 10.6508 131.84L28.0946 131.003C30.2065 137.525 33.1592 143.818 36.9206 149.725L25.1787 162.643C22.1197 166.026 22.36 171.258 25.729 174.318L45.5053 192.286C48.887 195.367 54.1064 195.105 57.1945 191.735L68.9191 178.812C75.163 181.997 81.7105 184.327 88.4169 185.804L89.2406 203.262C89.4565 207.806 93.3417 211.329 97.8995 211.112L124.583 209.828C129.138 209.606 132.662 205.749 132.448 201.183L131.602 183.737C138.127 181.616 144.415 178.681 150.325 174.925L163.26 186.671ZM76.9393 137.852C59.1479 121.687 57.8289 94.1307 73.986 76.3511C90.1721 58.5328 117.715 57.2288 135.504 73.4024C153.316 89.5775 154.64 117.13 138.455 134.912C122.295 152.7 94.7426 154.024 76.9393 137.852Z" fill="#C4C4C4" fill-opacity="0.33"/>
</svg>
