<svg width="361" height="361" viewBox="0 0 361 361" fill="none" xmlns="http://www.w3.org/2000/svg">
<path d="M274.945 324.998L264.274 296.579C273.96 289.594 282.822 281.353 290.613 271.956L318.239 284.514C325.487 287.797 334.009 284.6 337.292 277.366L356.518 235.019C359.816 227.785 356.613 219.265 349.388 215.971L321.728 203.415C323.69 191.362 324.049 179.258 322.945 167.381L351.372 156.713C358.814 153.917 362.578 145.616 359.793 138.197L343.443 94.6478C340.652 87.2033 332.366 83.4535 324.919 86.2247L296.483 96.9035C289.511 87.2181 281.262 78.3532 271.86 70.5792L284.424 42.9221C287.707 35.6882 284.507 27.1599 277.276 23.8825L234.931 4.64815C227.706 1.36801 219.16 4.56188 215.886 11.7986L203.316 39.4443C191.274 37.4907 179.176 37.1151 167.285 38.2323L156.626 9.79403C153.832 2.35796 145.534 -1.41464 138.087 1.38489L94.5545 17.726C87.1185 20.52 83.3489 28.7947 86.1512 36.2479L96.8159 64.6834C87.1333 71.6607 78.2711 79.9159 70.4746 89.3011L42.8403 76.726C35.5923 73.4428 27.0665 76.6624 23.7807 83.8905L4.55774 126.23C1.26053 133.463 4.46591 141.989 11.7025 145.278L39.3456 157.827C37.3948 169.875 37.022 181.979 38.1334 193.873L9.71193 204.552C2.25629 207.32 -1.49368 215.621 1.29741 223.065L17.6329 266.586C20.4268 274.037 28.7128 277.815 36.1603 275.015L64.5845 264.342C71.5617 274.039 79.8056 282.892 89.205 290.689L76.6441 318.323C73.3552 325.574 76.5608 334.086 83.8001 337.38L126.145 356.6C133.37 359.895 141.893 356.683 145.185 349.453L157.748 321.824C169.796 323.761 181.906 324.131 193.78 323.008L204.45 351.454C207.241 358.899 215.528 362.649 222.967 359.86L266.519 343.531C273.977 340.726 277.742 332.44 274.945 324.998ZM149.209 249.629C111.096 232.321 94.2302 187.395 111.535 149.276C128.845 111.169 173.777 94.3008 211.879 111.614C250.02 128.922 266.874 173.854 249.553 211.966C232.253 250.082 187.321 266.951 149.209 249.629Z" fill="#C4C4C4" fill-opacity="0.33"/>
</svg>
