<svg width="176" height="176" viewBox="30 30 181 180" fill="none" xmlns="http://www.w3.org/2000/svg">
<path d="M48.1624 69.9327C45.5601 72.7888 45.7771 77.2075 48.6269 79.7988L59.5563 89.7181C56.8579 94.9932 54.8986 100.522 53.6458 106.184L38.9171 106.895C35.05 107.079 32.0723 110.349 32.2671 114.21L33.339 136.75C33.5165 140.606 36.7901 143.589 40.654 143.4L55.3859 142.695C57.1821 148.214 59.6753 153.521 62.8518 158.528L52.9285 169.438C50.3348 172.297 50.544 176.727 53.4047 179.312L70.1181 194.497C72.9734 197.085 77.3953 196.874 79.9779 194.022L89.9068 183.109C95.1778 185.787 100.71 187.752 106.363 189.003L107.073 203.754C107.247 207.605 110.532 210.582 114.387 210.39L136.938 209.312C140.8 209.131 143.772 205.864 143.586 202.005L142.877 187.268C148.384 185.464 153.715 182.986 158.711 179.802L169.626 189.722C172.473 192.322 176.904 192.113 179.481 189.264L194.666 172.551C197.269 169.709 197.051 165.276 194.207 162.681L183.263 152.763C185.967 147.485 187.942 141.969 189.188 136.296L203.937 135.595C207.784 135.401 210.747 132.132 210.567 128.27L209.495 105.73C209.306 101.88 206.033 98.8971 202.188 99.0683L187.436 99.7777C185.646 94.2696 183.162 88.965 179.98 83.9606L189.911 73.0389C192.511 70.1915 192.296 65.7641 189.435 63.165L172.728 47.9911C169.86 45.3951 165.444 45.6035 162.854 48.4674L152.948 59.3818C147.651 56.696 142.121 54.7227 136.47 53.4776L135.756 38.7293C135.584 34.87 132.299 31.8931 128.444 32.0848L105.901 33.1653C102.046 33.357 99.0662 36.636 99.2547 40.4858L99.9577 55.2264C94.4519 57.0076 89.1213 59.4852 84.146 62.6796L73.2103 52.7493C70.3582 50.1667 65.9464 50.3576 63.3528 53.2161L48.1624 69.9327ZM146.161 93.9879C161.203 107.672 162.318 130.933 148.655 145.985C134.994 161.029 111.713 162.148 96.6685 148.473C81.6305 134.808 80.5059 111.531 94.1876 96.4972C107.846 81.4482 131.123 80.3236 146.161 93.9879Z" fill="#C4C4C4" fill-opacity="0.33"/>
</svg>
